<svg width="256" height="256" xmlns="http://www.w3.org/2000/svg"><path d="M0 0h256v256H0" fill="#007acc"/><path d="M147.2 139.52h-33.28v94.72H90.88v-94.72H56.32c-.223-6.992 0-12.725.008-20.631l90.875.152zm63.36-19.32c7.444 2.847 14.884 11.754 17.28 14.71-1.944 1.738-14.368 11.117-16.172 12.501-.926-.638-3.114-2.474-5.973-4.693-4.003-3.107-5.503-4.48-9.6-4.48-9.729 0-15.104 8.704-9.985 16.128 1.024 1.409 9.6 6.4 19.072 11.137 24.449 12.032 30.337 19.327 30.337 37.505-.128 13.184-6.784 22.912-19.84 28.927-4.685 1.687-8.576 2.944-19.2 2.816-14.976 0-25.728-4.351-32.384-10.112-6.15-5.974-9.754-12.852-10.368-13.952 1.009-.649 4.607-2.815 9.472-5.632l8.935-5.323 4.249 4.94c11.008 13.311 34.816 11.52 34.816-2.56 0-6.017-5.248-10.626-17.664-15.746-4.736-1.92-11.648-5.375-15.36-7.551-24.32-14.465-23.68-47.232 1.024-58.37 7.296-3.328 21.228-4.702 31.36-.246z" fill="#fff"/></svg>